<svg xmlns="http://www.w3.org/2000/svg" xmlns:xlink="http://www.w3.org/1999/xlink" viewBox="0 0 16 19.08"><path d="M14.49,6.38a.51.51,0,0,1,.51.5V17.57a.51.51,0,0,1-.51.51h-13A.51.51,0,0,1,1,17.57V6.88a.51.51,0,0,1,.51-.5h13m0-1h-13A1.51,1.51,0,0,0,0,6.88V17.57a1.52,1.52,0,0,0,1.51,1.51h13A1.52,1.52,0,0,0,16,17.57V6.88a1.51,1.51,0,0,0-1.51-1.5" transform="translate(0 0)" fill="currentColor"/><path d="M4.1,4.9a3.9,3.9,0,0,1,7.8,0V6.27h1V4.9a4.9,4.9,0,0,0-9.8,0V6.27h1Z" transform="translate(0 0)" fill="currentColor"/></svg>