<svg xmlns="http://www.w3.org/2000/svg" xmlns:xlink="http://www.w3.org/1999/xlink" viewBox="0 0 19 17.64"><path d="M13.56,1.5A4.94,4.94,0,0,1,15.81,2a5.24,5.24,0,0,1,2.51,3.36,5.39,5.39,0,0,1-.75,4.39h0l0,.08h0c-.52.85-3.37,3.5-7.38,6.86L10,16.54l-.15.18c-4-3.36-6.85-6-7.37-6.86h0l-.06-.08h0a5.35,5.35,0,0,1-.75-4.39A5.24,5.24,0,0,1,4.19,2,4.93,4.93,0,0,1,6.43,1.5a7.36,7.36,0,0,1,3.13.79l.44.22.44-.22a7.35,7.35,0,0,1,3.12-.79m0-1A8.15,8.15,0,0,0,10,1.4,8.16,8.16,0,0,0,6.43.5a5.79,5.79,0,0,0-2.69.64,6.25,6.25,0,0,0-3,4,6.33,6.33,0,0,0,.9,5.2l0-.05,0,.08,0,0c.86,1.49,6.62,6.33,8.39,7.8h0c1.77-1.47,7.53-6.31,8.39-7.8l0,0,.05-.08,0,.05a6.33,6.33,0,0,0,.9-5.2,6.25,6.25,0,0,0-3-4A5.8,5.8,0,0,0,13.56.5" transform="translate(-0.5 -0.5)" fill="currentColor"/></svg>