<svg xmlns="http://www.w3.org/2000/svg" xmlns:xlink="http://www.w3.org/1999/xlink" viewBox="0 0 16 21.22"><path d="M14.49,8.52A.51.51,0,0,1,15,9v10.7a.51.51,0,0,1-.51.5h-13a.51.51,0,0,1-.51-.5V9a.51.51,0,0,1,.51-.5h13m0-1h-13A1.51,1.51,0,0,0,0,9v10.7a1.51,1.51,0,0,0,1.51,1.5h13A1.51,1.51,0,0,0,16,19.72V9a1.51,1.51,0,0,0-1.51-1.5" transform="translate(0 0)" fill="currentColor"/><path d="M4.1,4.9a3.9,3.9,0,0,1,7.8,0V6.27h1V4.9a4.9,4.9,0,0,0-9.8,0V6.27h1Z" transform="translate(0 0)" fill="currentColor"/><path d="M8,13.1a1.27,1.27,0,1,1-1.27,1.27A1.27,1.27,0,0,1,8,13.1m0-1a2.27,2.27,0,1,0,2.27,2.27A2.27,2.27,0,0,0,8,12.1" transform="translate(0 0)" fill="currentColor"/></svg>