<svg xmlns="http://www.w3.org/2000/svg" xmlns:xlink="http://www.w3.org/1999/xlink" viewBox="0 0 18.21 23.9"><path d="M9.63,1.5a8.59,8.59,0,0,1,2.56.39A7.88,7.88,0,0,1,17.31,7a8.19,8.19,0,0,1-1.21,7.43L9.6,22.77,3.12,14.45A8,8,0,0,1,1.5,9.6,8.09,8.09,0,0,1,9.63,1.5m0,12A4.14,4.14,0,1,0,5.47,9.32,4.14,4.14,0,0,0,9.6,13.45M9.63.5A9.08,9.08,0,0,0,.5,9.6a9,9,0,0,0,1.82,5.45L9.6,24.4l7.29-9.35a9.19,9.19,0,0,0,1.37-8.34A8.85,8.85,0,0,0,12.49.94,9.42,9.42,0,0,0,9.63.5m0,12a3.14,3.14,0,1,1,3.14-3.13A3.13,3.13,0,0,1,9.6,12.45" transform="translate(-0.5 -0.5)" fill="currentColor"/></svg>