<svg xmlns="http://www.w3.org/2000/svg" xmlns:xlink="http://www.w3.org/1999/xlink" viewBox="0 0 22.95 21.22"><path d="M9.65,4.37A4.35,4.35,0,0,1,14,8.71v.61A4.31,4.31,0,0,1,11.93,13l-.65.41.22.73a2.13,2.13,0,0,0,1,1.3c.15.09.4.21.87.44l.16.08c.85.41,2.13,1,2.85,1.48a2.53,2.53,0,0,1,1.36,2.06c0,.17,0,.52,0,.72H1.55c0-.2,0-.55,0-.71a2.52,2.52,0,0,1,1.35-2.07C3.66,17,5,16.37,5.8,16L6,15.88c.47-.23.72-.35.87-.44a2.13,2.13,0,0,0,1-1.3L8,13.41,7.36,13A4.31,4.31,0,0,1,5.3,9.32V8.71A4.35,4.35,0,0,1,9.65,4.37m0-1h0A5.36,5.36,0,0,0,4.3,8.71v.61a5.34,5.34,0,0,0,2.53,4.53,1.14,1.14,0,0,1-.51.73l-1,.48c-.92.45-2.18,1.07-2.94,1.53A3.53,3.53,0,0,0,.59,19.43c0,.26,0,.92,0,.92l0,.87H18.78l0-.87s0-.66-.05-.92a3.53,3.53,0,0,0-1.83-2.84c-.75-.46-2-1.08-2.94-1.53l-1-.48a1.18,1.18,0,0,1-.51-.73A5.32,5.32,0,0,0,15,9.32V8.71A5.35,5.35,0,0,0,9.65,3.37" transform="translate(-0.52 0)" fill="currentColor"/><path d="M20,4.08a.51.51,0,0,0-.5-.5H13.67a.51.51,0,0,0-.22.06,7.45,7.45,0,0,1,1,.94h5a.5.5,0,0,0,.5-.5" transform="translate(-0.52 0)" fill="currentColor"/><path d="M20,7.08a.51.51,0,0,0-.5-.5H15.62a7,7,0,0,1,.27,1h3.56a.5.5,0,0,0,.5-.5" transform="translate(-0.52 0)" fill="currentColor"/><path d="M22.2,0H10.91A1.27,1.27,0,0,0,9.65,1.26V2.37a6.63,6.63,0,0,1,1,.08V1.26A.26.26,0,0,1,10.91,1H22.2a.27.27,0,0,1,.27.26V9.9a.28.28,0,0,1-.27.27H15.93a5.74,5.74,0,0,1-.21,1H22.2A1.27,1.27,0,0,0,23.47,9.9V1.26A1.27,1.27,0,0,0,22.2,0" transform="translate(-0.52 0)" fill="currentColor"/></svg>