<svg xmlns="http://www.w3.org/2000/svg" xmlns:xlink="http://www.w3.org/1999/xlink" viewBox="0 0 18.86 18.85"><path d="M9.41.54A8.88,8.88,0,1,1,4.74,17l.08.08L1.34,18.3l1.34-3.09A8.89,8.89,0,0,1,9.41.54Z" transform="translate(0 0)" fill="none" stroke="currentColor" stroke-linecap="round" stroke-linejoin="round" stroke-width="1.08"/><path d="M7.32,8.36c-.61-2.75,4.35-3.65,4.26-.16-.06.56-.31,1.16-1.64,2.29a1.93,1.93,0,0,0-.69.91" transform="translate(0 0)" fill="none" stroke="currentColor" stroke-linecap="round" stroke-linejoin="round" stroke-width="1.08"/><path d="M9.14,12.53a.51.51,0,1,1-.5.51.51.51,0,0,1,.5-.51" transform="translate(0 0)" fill="currentColor"/></svg>