<svg xmlns="http://www.w3.org/2000/svg" xmlns:xlink="http://www.w3.org/1999/xlink" viewBox="0 0 22 22"><path d="M11,1A10,10,0,1,1,1,11,10,10,0,0,1,11,1m0-1A11,11,0,1,0,22,11,11,11,0,0,0,11,0" transform="translate(0 0)" fill="currentColor"/><path d="M11,5.68a3.07,3.07,0,0,0-2.12.71A2.41,2.41,0,0,0,8.1,8.26H9.42a1.34,1.34,0,0,1,.44-1A1.73,1.73,0,0,1,11,6.84a1.52,1.52,0,0,1,1.15.42,1.68,1.68,0,0,1,.39,1.18A2.14,2.14,0,0,1,12,9.89l-.94,1A3.39,3.39,0,0,0,10.31,12a4,4,0,0,0-.19,1.35h1.32A2.4,2.4,0,0,1,12,11.63l.78-.77A3.57,3.57,0,0,0,13.9,8.39a2.65,2.65,0,0,0-.75-2A3,3,0,0,0,11,5.68m-.2,9.13a.72.72,0,0,0-.58.22.74.74,0,0,0-.2.54.72.72,0,0,0,.2.54.75.75,0,0,0,.58.22.79.79,0,0,0,.59-.22.77.77,0,0,0,.2-.54.78.78,0,0,0-.2-.54.76.76,0,0,0-.59-.22" transform="translate(0 0)" fill="currentColor"/></svg>