<svg xmlns="http://www.w3.org/2000/svg" xmlns:xlink="http://www.w3.org/1999/xlink" viewBox="0 0 17.78 21.22"><path d="M17.28,5.91H.5a.5.5,0,0,1-.5-.5.5.5,0,0,1,.5-.5H17.28a.5.5,0,0,1,.5.5.51.51,0,0,1-.5.5" transform="translate(0 0)" fill="currentColor"/><path d="M17.28,3.9H.5A.5.5,0,0,1,0,3.4a.5.5,0,0,1,.5-.5H17.28a.51.51,0,0,1,.5.5.5.5,0,0,1-.5.5" transform="translate(0 0)" fill="currentColor"/><path d="M4.23,15.18V8.41a.5.5,0,0,1,.5-.5.5.5,0,0,1,.5.5v6.77a.5.5,0,0,1-.5.5.5.5,0,0,1-.5-.5" transform="translate(0 0)" fill="currentColor"/><path d="M15,5.91a.61.61,0,0,1,.61.61V19.61a.62.62,0,0,1-.61.61H2.83a.62.62,0,0,1-.61-.61V6.52a.61.61,0,0,1,.61-.61H15m0-1H2.83A1.61,1.61,0,0,0,1.22,6.52V19.61a1.61,1.61,0,0,0,1.61,1.61H15a1.61,1.61,0,0,0,1.61-1.61V6.52A1.61,1.61,0,0,0,15,4.91" transform="translate(0 0)" fill="currentColor"/><path d="M11,1a.45.45,0,0,1,.45.44V2.91H6.36V1.44A.44.44,0,0,1,6.8,1H11m0-1H6.8A1.45,1.45,0,0,0,5.36,1.44V3.91h7.06V1.44A1.45,1.45,0,0,0,11,0" transform="translate(0 0)" fill="currentColor"/></svg>