<svg xmlns="http://www.w3.org/2000/svg" xmlns:xlink="http://www.w3.org/1999/xlink" viewBox="0 0 19 19.12"><path d="M.5,7.63h0a7.15,7.15,0,0,0,7.13,7.13h3l3.65,3.66a.67.67,0,0,0,.47.2h.09a.66.66,0,0,0,.66-.67V13.46A7.12,7.12,0,0,0,11.37.5H7.63A7.15,7.15,0,0,0,.5,7.63Z" transform="translate(0 0)" fill="none" stroke="currentColor" stroke-miterlimit="10"/><path d="M12.65,6.66H6.35a.5.5,0,0,1-.5-.5.5.5,0,0,1,.5-.5h6.3a.5.5,0,0,1,.5.5.5.5,0,0,1-.5.5" transform="translate(0 0)" fill="currentColor"/><path d="M12.65,9.62H6.35a.5.5,0,0,1-.5-.5.5.5,0,0,1,.5-.5h6.3a.5.5,0,0,1,.5.5.5.5,0,0,1-.5.5" transform="translate(0 0)" fill="currentColor"/></svg>