<svg xmlns="http://www.w3.org/2000/svg" xmlns:xlink="http://www.w3.org/1999/xlink" viewBox="0 0 20 20"><path d="M10,0A10,10,0,1,0,20,10,10,10,0,0,0,10,0m5.27,6.48c-.58,2.71-1.15,5.43-1.73,8.14-.14.64-.59.81-1.12.42l-2.66-2L9.62,13,8.2,14.36a.76.76,0,0,1-.59.24.3.3,0,0,1-.3-.23L6.23,11a.26.26,0,0,0-.2-.19L3.49,10a1.43,1.43,0,0,1-.38-.17.27.27,0,0,1,0-.45,1.61,1.61,0,0,1,.5-.31L6.69,7.88l7.93-3.06c.51-.19.9.08.84.63a9.3,9.3,0,0,1-.19,1" transform="translate(0 0)" fill="currentColor"/><path d="M12.72,6.82l-6,3.76a.18.18,0,0,0-.09.25c.15.42.29.85.42,1.28s.37,1.12.55,1.69h0a.24.24,0,0,0,0-.08c.06-.61.12-1.23.17-1.84A.47.47,0,0,1,8,11.54l2.44-2.2L13.16,6.9a1,1,0,0,0,.11-.21.71.71,0,0,0-.25,0,1.2,1.2,0,0,0-.3.15" transform="translate(0 0)" fill="currentColor"/></svg>