<svg xmlns="http://www.w3.org/2000/svg" xmlns:xlink="http://www.w3.org/1999/xlink" viewBox="0 0 20 19.56"><path d="M10.52,1.5a4.86,4.86,0,0,1,4.85,4.86V7a4.84,4.84,0,0,1-2.3,4.12l-.65.4.22.74a2.24,2.24,0,0,0,1,1.37c.16.09.43.22.95.47l.17.09c1,.48,2.34,1.14,3.13,1.62a2.85,2.85,0,0,1,1.53,2.34c0,.22,0,.7,0,.89H1.55c0-.19,0-.67,0-.89a2.83,2.83,0,0,1,1.54-2.33c.78-.49,2.14-1.15,3.13-1.63l.17-.09c.51-.25.79-.38,1-.47a2.27,2.27,0,0,0,1-1.37l.23-.74L8,11.14A4.83,4.83,0,0,1,5.66,7V6.36A4.87,4.87,0,0,1,10.52,1.5m0-1h0A5.88,5.88,0,0,0,4.66,6.36V7a5.86,5.86,0,0,0,2.78,5,1.3,1.3,0,0,1-.56.79l-1.06.53c-1,.49-2.39,1.17-3.22,1.67a3.86,3.86,0,0,0-2,3.12c0,.28,0,1,0,1l0,.95h20l0-.95s0-.73,0-1a3.88,3.88,0,0,0-2-3.12c-.82-.5-2.21-1.18-3.22-1.67l-1.05-.53A1.3,1.3,0,0,1,13.6,12a5.87,5.87,0,0,0,2.77-5V6.36A5.87,5.87,0,0,0,10.52.5" transform="translate(-0.52 -0.5)" fill="currentColor"/></svg>