<svg xmlns="http://www.w3.org/2000/svg" xmlns:xlink="http://www.w3.org/1999/xlink" width="62" height="62" viewBox="0 0 62 62"><path d="M45,33H43a2,2,0,0,1-4,0H37a4,4,0,0,0,8,0" fill="#596786" /><path d="M57.21,45.69,47,42.28V40.21a11.09,11.09,0,0,0,4.59-6.27A5,5,0,0,0,56,29V21a15,15,0,0,0-29.49-3.83c-.17-.2-.34-.41-.53-.61l-5.67-5.67L24.44,5.1A2.94,2.94,0,0,0,25,3.36V3a3,3,0,0,0-3-3,3.17,3.17,0,0,0-2.5,1.34c-.44.5-.61.66-1,.66s-.57-.16-1-.66A3.21,3.21,0,0,0,15,0a3.2,3.2,0,0,0-2.5,1.34c-.43.5-.61.66-1,.66s-.56-.16-1-.66A3.18,3.18,0,0,0,8,0,3,3,0,0,0,5,3v.36A2.94,2.94,0,0,0,5.56,5.1l4.13,5.79L4,16.56A13.73,13.73,0,0,0,13.73,40h2.54a13.76,13.76,0,0,0,11.9-6.89,5,5,0,0,0,2.24.83A11.06,11.06,0,0,0,35,40.21v2.07l-10.21,3.4A7,7,0,0,0,20,52.32V62H62V52.32a7,7,0,0,0-4.79-6.63M52,31.83c0-.28,0-.55,0-.83V26.18a3,3,0,0,1,0,5.65M41,8A13,13,0,0,1,54,21v4a4.84,4.84,0,0,0-2-.93V22H49a9.05,9.05,0,0,1-7.2-3.6L41,17.33l-.8,1.07A9.05,9.05,0,0,1,33,22H30v2.1A4.84,4.84,0,0,0,28,25V21A13,13,0,0,1,41,8M7,3.36V3A1,1,0,0,1,8,2c.39,0,.56.16,1,.66A3.21,3.21,0,0,0,11.5,4,3.2,3.2,0,0,0,14,2.66c.43-.5.61-.66,1-.66s.57.16,1,.66A3.21,3.21,0,0,0,18.5,4,3.18,3.18,0,0,0,21,2.66c.44-.5.61-.66,1-.66a1,1,0,0,1,1,1v.36a.94.94,0,0,1-.19.58L18.49,10h-7L7.19,3.94A.94.94,0,0,1,7,3.36M16.27,38H13.73A11.72,11.72,0,0,1,5.44,18l6-6h7.18l6,6a11.56,11.56,0,0,1,1.5,1.85c0,.39-.06.78-.06,1.17v8a5,5,0,0,0,.73,2.57A11.75,11.75,0,0,1,16.27,38M28,29a3,3,0,0,1,2-2.82V31c0,.28,0,.55,0,.83A3,3,0,0,1,28,29m4,2V24h1a11.05,11.05,0,0,0,8-3.45A11.05,11.05,0,0,0,49,24h1v7a9,9,0,0,1-18,0m9,11a11.07,11.07,0,0,0,4-.76v1.35l-4,4-4-4V41.24A11.07,11.07,0,0,0,41,42m9,14H48a5,5,0,0,0-4.9,4H38.9A5,5,0,0,0,34,56H32V50H50ZM22,52.32a5,5,0,0,1,3.42-4.74l10.31-3.44L39.59,48H30v8H28V52H26v6h8a3,3,0,0,1,2.82,2H22ZM60,60H45.18A3,3,0,0,1,48,58h8V52H54v4H52V48H42.41l3.86-3.86,10.31,3.44A5,5,0,0,1,60,52.32Z" fill="#596786" /><path d="M36,26a1,1,0,1,1-1,1,1,1,0,0,1,1-1" fill="#596786" /><path d="M46,26a1,1,0,1,1-1,1,1,1,0,0,1,1-1" fill="#596786" /><path d="M8.26,20.81l1.1-1.1L8,18.29l-1.1,1.1a9.27,9.27,0,0,0-.87,1l1.59,1.21a7.63,7.63,0,0,1,.69-.8" fill="#596786" /><path d="M6,26.27a7.63,7.63,0,0,1,.56-2.89L4.7,22.63a9.75,9.75,0,0,0,7.1,13.18l.4-2A7.76,7.76,0,0,1,6,26.27" fill="#596786" /><path d="M15,20a2,2,0,0,1,2,2h2a4,4,0,0,0-3-3.86V16H14v2.14A4,4,0,0,0,15,26a2,2,0,1,1-2,2H11a4,4,0,0,0,3,3.86V34h2V31.86A4,4,0,0,0,15,24a2,2,0,0,1,0-4" fill="#596786" /></svg>