<svg xmlns="http://www.w3.org/2000/svg" xmlns:xlink="http://www.w3.org/1999/xlink" width="60" height="52" viewBox="0 0 60 52"><path d="M40,51a1,1,0,0,1-1,1H37a1,1,0,0,1,0-2h2a1,1,0,0,1,1,1m20,0a1,1,0,0,1-1,1H43a1,1,0,0,1,0-2H59a1,1,0,0,1,1,1M32,51a1,1,0,0,1-1,1H21a1,1,0,0,1,0-2H31a1,1,0,0,1,1,1M16,51a1,1,0,0,1-1,1H1a1,1,0,0,1,0-2H15a1,1,0,0,1,1,1M2,31a1,1,0,0,1,1-1H5.84l-.42-2.85a1,1,0,1,1,2-.3L7.86,30H15a1,1,0,0,1,0,2H3a1,1,0,0,1-1-1m1-9H4.56l-.42-2.85a1,1,0,1,1,2-.3L6.58,22H15a1,1,0,0,1,0,2H3a1,1,0,0,1,0-2M15,42a1,1,0,1,1,1-1,1,1,0,0,1-1,1m0-4a3,3,0,1,0,3,3,3,3,0,0,0-3-3m34,4a1,1,0,1,1,1-1,1,1,0,0,1-1,1m0-4a3,3,0,1,0,3,3,3,3,0,0,0-3-3m0,8a5,5,0,1,1,5-5,5,5,0,0,1-5,5m9.71-20.71L56,22.55,55,11a5,5,0,0,0-5-5H43a1,1,0,0,0,0,2h7a3.05,3.05,0,0,1,3,3.08L53.91,22H50.62l1.28-2.55a1,1,0,1,0-1.8-.9L48.38,22H43a1,1,0,0,0,0,2H54.59l2.7,2.71A3.91,3.91,0,0,1,58,29V40H55.92a7,7,0,1,0,0,2H59a1,1,0,0,0,1-1V29a5.83,5.83,0,0,0-1.29-3.71M15,46a5,5,0,1,1,5-5,5,5,0,0,1-5,5M39,0H7A5,5,0,0,0,2,5a.76.76,0,0,0,0,.15L3.34,14H1a1,1,0,0,0,0,2H15a1,1,0,0,0,0-2H5.36L4,4.93A3,3,0,0,1,7,2H38V40H21.92a7,7,0,1,0,0,2H39a1,1,0,0,0,1-1V1a1,1,0,0,0-1-1" fill-rule="evenodd" fill="#596786" /></svg>