<svg xmlns="http://www.w3.org/2000/svg" xmlns:xlink="http://www.w3.org/1999/xlink" width="361.27" height="410.58" viewBox="0 0 361.27 410.58"><path d="M264.78,185.85a5.15,5.15,0,1,0-6.33-8.13,26.75,26.75,0,0,1-31.69,0,5.15,5.15,0,1,0-6.35,8.11,37,37,0,0,0,44.37,0Z" transform="translate(0 0)" fill="#596786" /><path d="M242.6,319c-18.79,0-33,8.42-33,19.58s14.18,19.58,33,19.58,33-8.41,33-19.58S261.39,319,242.6,319m0,28.86c-13.63,0-22.66-5.58-22.66-9.28s9-9.28,22.66-9.28,22.66,5.59,22.66,9.28-9,9.28-22.66,9.28" transform="translate(0 0)" fill="#596786" /><path d="M212.53,147.92a5.16,5.16,0,0,0-5.15,5.15v6.3a5.15,5.15,0,0,0,10.3,0v-6.3a5.16,5.16,0,0,0-5.15-5.15" transform="translate(0 0)" fill="#596786" /><path d="M361.23,375.76l-3.86-89.51a47.71,47.71,0,0,0-38.9-44.57l-51.74-9.85v-5.71a60.21,60.21,0,0,0,10-4.19,109.16,109.16,0,0,0,15.33,1,135.79,135.79,0,0,0,41.57-6.63,6.12,6.12,0,0,0,4.18-4.86c.62-3.8,14.76-93.69-26.3-142C295,49.9,271.81,40,242.6,40s-52.41,9.9-69,29.43c-41.07,48.35-26.93,138.23-26.31,142a6.14,6.14,0,0,0,4.2,4.86c27.8,8.94,50.56,6.58,57.39,5.53a59.94,59.94,0,0,0,10.18,4.32v5.71l-52.4,9.81a47.76,47.76,0,0,0-38.89,44.63l-3.84,89.39a33.14,33.14,0,0,0,31.3,34.82c.6,0,1.19.05,1.78.05H328.14a33.18,33.18,0,0,0,33.13-33.15c0-.56,0-1.11,0-1.67m-46.36,12.67v2.79a7.12,7.12,0,0,1-7.08,7.08H177.41a7.11,7.11,0,0,1-7.08-7.08v-2.79Zm12.3,2.79V382.3a6.16,6.16,0,0,0-6.15-6.15h-.91V367h11.78a6.16,6.16,0,0,0-.05-12.31H320.11v-61.5a14.93,14.93,0,0,0-14.9-14.9H180a14.94,14.94,0,0,0-14.9,14.9v61.5H153.32a6.19,6.19,0,0,0-5.89,6.43,6.14,6.14,0,0,0,5.93,5.88h11.73v9.16h-.92a6.18,6.18,0,0,0-6.15,6.15v8.94a19.32,19.32,0,0,0,1.35,7.08h-2.31a20.84,20.84,0,0,1-20.82-20.82q0-.56,0-1.14L140.12,287A35.49,35.49,0,0,1,169,253.82l37.87-7.1,31.78,26.46a6.17,6.17,0,0,0,7.87,0l31.87-26.52,37.78,7.16a35.47,35.47,0,0,1,28.9,33.06l3.85,89.52a20.69,20.69,0,0,1-5.68,15.4l-.77.81a20.73,20.73,0,0,1-14.24,5.69h-2.41a19.31,19.31,0,0,0,1.34-7.08M222.68,243.73a10.72,10.72,0,0,0,8.73-10.53V221.48a6.12,6.12,0,0,0-4.78-6,47,47,0,0,1-36.42-45.73V143.32c17.32,1.23,70.39,2.34,105.42-25.52v52a46.91,46.91,0,0,1-21.9,39.72,6.24,6.24,0,0,0-2.74,1.6,47.38,47.38,0,0,1-11.74,4.4,6.12,6.12,0,0,0-4.78,6v11.73a10.73,10.73,0,0,0,8.31,10.44L242.6,260.41l-20-16.66Zm85.25-74V103.54a6.15,6.15,0,0,0-6.15-6.14h0a6.17,6.17,0,0,0-4.59,2.07c-35.13,39.61-109.19,31.37-112.33,31a6.15,6.15,0,0,0-6.94,6.1v33.2a59.31,59.31,0,0,0,16.25,40.84,122.1,122.1,0,0,1-35.23-4.88c-2-16-9.06-89.39,24-128.34C197.16,60.74,217.22,52.3,242.6,52.3S288,60.74,302.21,77.39c33.07,38.91,26.07,112.29,24.06,128.34a121.28,121.28,0,0,1-34.57,4.87,59.33,59.33,0,0,0,16.23-40.83M180,290.56H305.21a2.6,2.6,0,0,1,2.6,2.6v83H177.39v-83a2.61,2.61,0,0,1,2.6-2.6" transform="translate(0 0)" fill="#596786" /><path d="M272.67,164.52a5.15,5.15,0,0,0,5.15-5.15v-6.3a5.15,5.15,0,0,0-10.3,0v6.3a5.16,5.16,0,0,0,5.15,5.15" transform="translate(0 0)" fill="#596786" /><path d="M113.57,148.46h-.63a11.13,11.13,0,0,1-7.92-3.29L79.38,119.53H59.76A59.83,59.83,0,0,1,0,59.76H0A59.83,59.83,0,0,1,59.76,0H87.83a59.68,59.68,0,0,1,36.94,106.62v30.63a11.22,11.22,0,0,1-11.2,11.21M59.76,12.4a47.37,47.37,0,0,0,0,94.73H84.51L112.37,135V100.3L115,98.45a47.29,47.29,0,0,0-27.17-86Z" transform="translate(0 0)" fill="#596786" /><path d="M51.6,59.91a6.2,6.2,0,1,1-6.2-6.2,6.21,6.21,0,0,1,6.2,6.2" transform="translate(0 0)" fill="#596786" /><path d="M79.62,59.91a6.2,6.2,0,1,1-6.2-6.2,6.2,6.2,0,0,1,6.2,6.2" transform="translate(0 0)" fill="#596786" /><path d="M107.64,59.91a6.2,6.2,0,1,1-6.2-6.2,6.2,6.2,0,0,1,6.2,6.2" transform="translate(0 0)" fill="#596786" /></svg>