<svg xmlns="http://www.w3.org/2000/svg" xmlns:xlink="http://www.w3.org/1999/xlink" width="86.28" height="104.57" viewBox="0 0 86.28 104.57"><path d="M48.67,83.26a1.71,1.71,0,0,1,1.74,1.55,1.74,1.74,0,0,1-1.74,1.75h-3.3v14a.73.73,0,0,0,.19.59c.2,0,.39.2.59.2h28.5c.19,0,.38-.2.58-.2,0-.19.19-.39.19-.59V95.87h-7a1.68,1.68,0,0,1-1.55-1.55,1.71,1.71,0,0,1,1.55-1.75h7v-6H53.51a1.74,1.74,0,0,1-1.74-1.75,1.71,1.71,0,0,1,1.74-1.55h22.1L83,12.69H76a1.7,1.7,0,0,1-1.75-1.55A1.73,1.73,0,0,1,76,9.4h7.17c.19-7.18,1.74-5.63-5.62-5.82-12.22,0-39.36-.39-39.94.19V9.4c10.66-.39,22.87,0,33.54,0a1.73,1.73,0,0,1,1.74,1.74,1.71,1.71,0,0,1-1.74,1.55H37.81l.58,5.43v.19l5,48.86.2.2,1.55,15.89ZM86.28,11.53,78.72,85v15.51a4,4,0,0,1-4.07,3.89H45.76c-12,.38-24.43,0-36.65,0a9.07,9.07,0,0,1-6.39-2.52A9.24,9.24,0,0,1,0,95.29V33.05a9.29,9.29,0,0,1,9.11-9.31H19V20.06H14.93A2.9,2.9,0,0,1,13,19.28a2.69,2.69,0,0,1-1-1.93V7.65a2.67,2.67,0,0,1,1-1.93,3,3,0,0,1,1.94-.78H34.32V3.77a3.51,3.51,0,0,1,.39-1.35,1.87,1.87,0,0,1,.77-1,2.44,2.44,0,0,1,1.36-1c6.2-1,29.66-.2,40.91,0h5.43a4,4,0,0,1,2.32,1,3.06,3.06,0,0,1,.78,2.32v7.76Zm-52-3.3h-19v8.54H34.9l-.58-5.43V8.23ZM9.7,91.21a1.43,1.43,0,0,1-1.55,1.55,1.43,1.43,0,0,1-1.56-1.55V82.68a1.56,1.56,0,0,1,3.11,0Zm0-13.38a1.56,1.56,0,1,1-3.11,0V75.31a1.43,1.43,0,0,1,1.56-1.55A1.43,1.43,0,0,1,9.7,75.31ZM63.6,92.57a1.59,1.59,0,0,1,1.55,1.75,1.54,1.54,0,0,1-1.55,1.55H61.07a1.68,1.68,0,0,1-1.55-1.55,1.71,1.71,0,0,1,1.55-1.75ZM60.3,64.65a15.29,15.29,0,0,1-2.91-.39,9.88,9.88,0,0,1-6.2-3.87A11,11,0,0,1,49.05,54c.2-1,.2-1.75.39-2.72,1.16-5.62,9.5-19,9.5-19a1.67,1.67,0,0,1,2.33-.58c.19.2.39.39.58.58,1.55,2.53,3.49,5.82,5.43,9.11,1.75,3.5,3.49,7.18,4.07,9.89a9.7,9.7,0,0,1,.19,2.33,11.45,11.45,0,0,1-1.93,6.59,10,10,0,0,1-6.4,4.07,12,12,0,0,1-2.91.39m-2.13-3.49c.58,0,1.35.2,2.13.2s1.55-.2,2.33-.2a7.72,7.72,0,0,0,4.26-2.9,8,8,0,0,0,1.55-4.66c0-.58-.19-1-.19-1.55a42.26,42.26,0,0,0-3.88-9.12c-1.36-2.32-2.71-4.84-3.88-6.78-2.52,3.88-7,12-8,15.9,0,.58-.19,1.36-.19,1.94a8.61,8.61,0,0,0,1.36,4.46,9.22,9.22,0,0,0,4.46,2.71M28.7,52.44a6.44,6.44,0,0,1,4.07,2.13l1.16,1.16c.58-.19,1.16-.58,1.75-.77a6.86,6.86,0,0,0,1.74-1.17l.58-.58a2.85,2.85,0,0,0,.39-1.74,3.34,3.34,0,0,0-1.16-2.32,6.86,6.86,0,0,0-1.75-1.56,7.6,7.6,0,0,0-1.74-1,6.4,6.4,0,0,0-2.72,0,2,2,0,0,0-1.55,1.16c-.19.2-.19.39-.39.58a7.38,7.38,0,0,0-.38,2.33Zm6.39,6.78V60a7.76,7.76,0,0,1-1.93,5c.58.58,1,1.16,1.35,1.55A9.05,9.05,0,0,0,36.06,68a2.72,2.72,0,0,0,2.14.38A4.38,4.38,0,0,0,40.33,67l-1-8.53H39c-.58,0-1.35.19-2.13.19l-.19.2a6.21,6.21,0,0,0-1.56.38m-4.65,8a8.57,8.57,0,0,1-6.2,0,7.45,7.45,0,0,0-1,1.75c-.39.77-.78,1.35-1,1.74v.77a2.35,2.35,0,0,0,.58,1.75A3.42,3.42,0,0,0,25,74.54a10,10,0,0,0,2.33.39,7.09,7.09,0,0,0,2.13-.39,4.64,4.64,0,0,0,2.33-1.36,3.1,3.1,0,0,0,.58-1.75v-.77a17.4,17.4,0,0,0-1-1.94,4.17,4.17,0,0,0-1-1.55m-8.92-1.93A8.33,8.33,0,0,1,19.58,60a13.28,13.28,0,0,0-1.94-.78h-.19L17.26,59H15.51a1.48,1.48,0,0,0-.77.19,2.64,2.64,0,0,0-1.36,1.17,4.81,4.81,0,0,0-.58,2.51c.19.59.39,1.36.58,2.14a17.48,17.48,0,0,0,1,1.94,4.52,4.52,0,0,0,2.13,1.74,3.21,3.21,0,0,0,1.94,0c.2-.19.39-.19.58-.39a2.81,2.81,0,0,0,.78-.77c.39-.19.58-.58,1-.78.19-.58.58-1,.77-1.54M20.36,56.7a5.42,5.42,0,0,1,1.55-2.13A6.56,6.56,0,0,1,25,52.63c-.19-.77-.19-1.36-.39-2.14A8.36,8.36,0,0,0,24,48.76a1,1,0,0,0-.38-.78,4.17,4.17,0,0,0-1.55-1h-.2a4.66,4.66,0,0,0-2.52.58,4.55,4.55,0,0,0-1.75,1.17,12.71,12.71,0,0,0-1.55,1.73A4.3,4.3,0,0,0,15.32,53a3.53,3.53,0,0,0,.77,1.74l.39.39a5.6,5.6,0,0,0,1.55.77h.2v.2h.39v.19a5.75,5.75,0,0,1,1.74.39m10.28.19a4.25,4.25,0,0,0-3.3-1.35,3.84,3.84,0,0,0-3.1,1.35A3.88,3.88,0,0,0,22.88,60a4.24,4.24,0,0,0,1.36,3.29l.38.39h.2a3.58,3.58,0,0,0,2.52.77,5.25,5.25,0,0,0,3.3-1.16A4.9,4.9,0,0,0,31.8,60a2.81,2.81,0,0,0-.2-1.36v-.19a4.32,4.32,0,0,0-1-1.56m10.08,14a3.1,3.1,0,0,1-1.75.58,4.65,4.65,0,0,1-3.29,0,5.9,5.9,0,0,1-1.36,3.88,8.41,8.41,0,0,1-4.07,2.33,6.61,6.61,0,0,1-2.91.39,8,8,0,0,1-3.1-.39,6.57,6.57,0,0,1-3.88-2.33A5.52,5.52,0,0,1,19,71.83a5.48,5.48,0,0,1-3.49,0l-.19-.2a6.7,6.7,0,0,1-3.49-2.71,12.65,12.65,0,0,1-1.55-2.72,9.55,9.55,0,0,1-.58-3.1,6.88,6.88,0,0,1,1-4.46,5.84,5.84,0,0,1,2.52-2.33,5.91,5.91,0,0,1-1-3.29,6.69,6.69,0,0,1,1.16-4.46,10.7,10.7,0,0,1,2.13-2.13A10,10,0,0,1,18,44.68a7.54,7.54,0,0,1,4.46-.77h.2A5.21,5.21,0,0,1,26,45.85c.2.19.39.38.39.58.19-.2.19-.39.39-.39a5.47,5.47,0,0,1,3.29-2.52,9.39,9.39,0,0,1,4.66,0c.77.39,1.74.78,2.71,1.36l.58.58-2.71-25.4h-13v3.68h2.13A1.59,1.59,0,0,1,26,25.49,1.53,1.53,0,0,1,24.43,27H9.11a6,6,0,0,0-5.81,6V95.29a6,6,0,0,0,5.81,6H42.27a1.18,1.18,0,0,1-.2-.79V85Z" transform="translate(0 0)" fill="#ea6c66"/></svg>