<svg xmlns="http://www.w3.org/2000/svg" xmlns:xlink="http://www.w3.org/1999/xlink" width="86.59" height="71.72" viewBox="0 0 86.59 71.72"><path d="M43.31,3.27h.17l.08,0h-.21l.33,0-.12,0a4,4,0,0,1,3,1.92L81.64,59.29c1.58,2.34,2.07,4.61,1.36,6.37a4.32,4.32,0,0,1-3.3,2.63,4.65,4.65,0,0,1-.79.15H7.68A5.5,5.5,0,0,1,7,68.33a4.43,4.43,0,0,1-3.43-2.67c-.71-1.76-.22-4,1.35-6.37L40,5.21a4,4,0,0,1,3-1.92l-.12,0,.33,0H43l.09,0h.2m0,3.52h0m0,14h0c-5.52.09-4.77,10-3.85,14.4,1.53,7.13,3.58,14,3.58,14a.31.31,0,0,0,.27.26v0h0v0a.3.3,0,0,0,.27-.26s2-6.86,3.58-14c.93-4.44,1.67-14.31-3.85-14.4h0m0,39a3.59,3.59,0,1,0-3.58-3.59,3.59,3.59,0,0,0,3.58,3.59M43.31,0h-.46L42.6,0h-.08a7.25,7.25,0,0,0-5.23,3.38L2.22,57.49C0,60.76-.57,64.09.55,66.88A7.7,7.7,0,0,0,6.2,71.49a7.55,7.55,0,0,0,1.1.19l.13,0,.17,0H79l.17,0h.11a8.38,8.38,0,0,0,1.24-.23A7.65,7.65,0,0,0,86,66.88c1.11-2.79.52-6.12-1.67-9.39L49.3,3.43A7.27,7.27,0,0,0,44.05.05a3.89,3.89,0,0,0-.74,0m0,37.49c-.23-1-.46-2-.67-3-.88-4.23-.72-9,.35-10.29a.4.4,0,0,1,.64,0c1.07,1.34,1.23,6.06.34,10.3-.21,1-.44,2-.66,3m0,19.09a.31.31,0,0,1-.31-.32.32.32,0,1,1,.63,0,.32.32,0,0,1-.32.32" transform="translate(0 0)" fill="#ea6c66"/></svg>