<svg xmlns="http://www.w3.org/2000/svg" xmlns:xlink="http://www.w3.org/1999/xlink" width="78.72" height="101.39" viewBox="0 0 78.72 101.39"><path d="M49.63,7h0V3.29H29.08V14.73H49.63Zm-.58,70.37a1.71,1.71,0,0,1-1.55-1.74,1.67,1.67,0,0,1,1.55-1.55H59.52a1.67,1.67,0,0,1,1.56,1.55,1.71,1.71,0,0,1-1.56,1.74Zm-7.56,0a1.73,1.73,0,0,1-1.74-1.74,1.71,1.71,0,0,1,1.74-1.55H44.4a1.7,1.7,0,0,1,1.74,1.55,1.73,1.73,0,0,1-1.74,1.74ZM51.77,51.76a1.75,1.75,0,0,1,1.75,1.75,1.72,1.72,0,0,1-1.75,1.55H41.49a1.71,1.71,0,0,1-1.74-1.55,1.74,1.74,0,0,1,1.74-1.75Zm7.75,0a1.72,1.72,0,0,1,1.56,1.75,1.68,1.68,0,0,1-1.56,1.55h-3.1a1.68,1.68,0,0,1-1.55-1.55,1.72,1.72,0,0,1,1.55-1.75ZM49.05,33a1.67,1.67,0,0,1-1.55-1.54,1.72,1.72,0,0,1,1.55-1.75H59.52a1.72,1.72,0,0,1,1.56,1.75A1.67,1.67,0,0,1,59.52,33ZM19,67.27H32.77a1.68,1.68,0,0,1,1.55,1.55V82.39a1.72,1.72,0,0,1-1.55,1.75H19a1.71,1.71,0,0,1-1.55-1.75V68.82A1.67,1.67,0,0,1,19,67.27m12,3.3H20.75V80.84H31ZM19,45H32.77a1.71,1.71,0,0,1,1.55,1.74V60.29a1.67,1.67,0,0,1-1.55,1.55H19a1.66,1.66,0,0,1-1.55-1.55V46.72A1.7,1.7,0,0,1,19,45m12,3.29H20.75V58.55H31ZM19,22.88H32.77a1.71,1.71,0,0,1,1.55,1.74V38.19a1.67,1.67,0,0,1-1.55,1.55H19a1.66,1.66,0,0,1-1.55-1.55V24.62A1.7,1.7,0,0,1,19,22.88m12,3.29H20.75V36.45H31ZM41.49,33a1.71,1.71,0,0,1-1.74-1.54,1.74,1.74,0,0,1,1.74-1.75H44.4a1.74,1.74,0,0,1,1.74,1.75A1.7,1.7,0,0,1,44.4,33Zm-6-22.87a1.73,1.73,0,0,1-1.74-1.74,1.71,1.71,0,0,1,1.74-1.56h7.76a1.68,1.68,0,0,1,1.55,1.56,1.71,1.71,0,0,1-1.55,1.74ZM52.73,5.43H72.51a5.42,5.42,0,0,1,4.27,1.74,6.33,6.33,0,0,1,1.94,4.46V95.38a6.25,6.25,0,0,1-1.94,4.27,6,6,0,0,1-4.27,1.74H6a6,6,0,0,1-6-6V11.63A6.12,6.12,0,0,1,1.75,7.17,6,6,0,0,1,6,5.43H25.78V1.55A1.67,1.67,0,0,1,27.34,0H51.18a1.52,1.52,0,0,1,1.55,1.55ZM25.78,8.72H6a2.52,2.52,0,0,0-1.94.78,2.77,2.77,0,0,0-1,2.13V95.38a2.69,2.69,0,0,0,1,1.94A2.52,2.52,0,0,0,6,98.1h66.5a2.49,2.49,0,0,0,1.94-.78,2.69,2.69,0,0,0,1-1.94V11.63a2.77,2.77,0,0,0-1-2.13,2.25,2.25,0,0,0-1.94-.78H52.73v6H67.66a1.53,1.53,0,0,1,1.56,1.55V90.54a1.53,1.53,0,0,1-1.56,1.55H10.86a1.67,1.67,0,0,1-1.55-1.55V16.28a1.68,1.68,0,0,1,1.55-1.55H25.78ZM66.11,18H12.6V88.79H66.11Z" transform="translate(0 0)" fill="#ea6c66"/></svg>