<svg xmlns="http://www.w3.org/2000/svg" xmlns:xlink="http://www.w3.org/1999/xlink" viewBox="0 0 520.73 83.99"><defs><clipPath id="a" transform="translate(0 -0.15)"><rect width="520.73" height="84.14" fill="none"/></clipPath><clipPath id="b" transform="translate(0 -0.15)"><path d="M47.65,0C37.5,0,21.19,4.35,15.56,7.05-7.39,18.06-1.26,32.54,11,46.3,21.61,58.17,37.43,63.71,48.9,39.05,53.44,29.28,59.13,5.8,55.43,1.89,54.16.55,51.4,0,47.85,0Z" fill="none"/></clipPath></defs><polygon points="80.73 5.92 105.39 5.92 105.39 9.34 84.49 9.34 84.49 23.69 104.08 23.69 104.08 27.11 84.49 27.11 84.49 42.83 106.31 42.83 106.31 46.25 80.73 46.25 80.73 5.92" fill="#fff"/><g clip-path="url(#a)"><path d="M126.68,6.07H138.3a20.11,20.11,0,0,1,4.39.52,11.88,11.88,0,0,1,4.21,1.65,9.06,9.06,0,0,1,3.14,3.3,9.87,9.87,0,0,1,1.25,5.19,10.24,10.24,0,0,1-1,4.72,9.23,9.23,0,0,1-2.68,3.31,11.63,11.63,0,0,1-3.87,1.88,16.68,16.68,0,0,1-4.56.62h-8.72V46.4h-3.76Zm3.76,17.78H139a14.23,14.23,0,0,0,3.13-.35,8.67,8.67,0,0,0,2.73-1.19,6.42,6.42,0,0,0,1.94-2.22,7,7,0,0,0,.74-3.36,6.37,6.37,0,0,0-.8-3.31,6.17,6.17,0,0,0-2-2.22A7.65,7.65,0,0,0,142,9.89a12.91,12.91,0,0,0-3.19-.4h-8.32Z" transform="translate(0 -0.15)" fill="#fff"/><rect x="171.58" y="5.92" width="3.76" height="40.33" fill="#fff"/><path d="M198.05,6.07h12.48a26.49,26.49,0,0,1,8.88,1.31,19,19,0,0,1,6,3.25,15.55,15.55,0,0,1,3.82,4.44,19.58,19.58,0,0,1,2,4.62,20.48,20.48,0,0,1,.85,4c.12,1.18.17,2,.17,2.51s-.05,1.35-.17,2.56a20.5,20.5,0,0,1-.85,4,20.43,20.43,0,0,1-2,4.67,15.75,15.75,0,0,1-3.82,4.38,19.89,19.89,0,0,1-6,3.31,27.66,27.66,0,0,1-8.88,1.25H198.05ZM201.81,43h7.75A27.51,27.51,0,0,0,217,42a17.32,17.32,0,0,0,6-3.07,14.51,14.51,0,0,0,4-5.18,17.7,17.7,0,0,0,1.48-7.52,17.24,17.24,0,0,0-1.48-7.46,14.22,14.22,0,0,0-4-5.24,16.58,16.58,0,0,0-6-3,26,26,0,0,0-7.46-1h-7.75Z" transform="translate(0 -0.15)" fill="#fff"/><polygon points="252.97 5.92 277.64 5.92 277.64 9.34 256.73 9.34 256.73 23.69 276.33 23.69 276.33 27.11 256.73 27.11 256.73 42.83 278.55 42.83 278.55 46.25 252.97 46.25 252.97 5.92" fill="#fff"/><path d="M302.69,23.85h8a13,13,0,0,0,4.78-.74,8.09,8.09,0,0,0,2.91-1.83A5.56,5.56,0,0,0,319.72,19a7.79,7.79,0,0,0,.39-2.28,7.79,7.79,0,0,0-.39-2.28,5.6,5.6,0,0,0-1.37-2.34,8.08,8.08,0,0,0-2.91-1.82,13,13,0,0,0-4.78-.74h-8ZM298.93,6.07h10.59c.53,0,1.25,0,2.17.06a22.61,22.61,0,0,1,3,.34,18.81,18.81,0,0,1,3.24.91A9.11,9.11,0,0,1,323,12.23a10.37,10.37,0,0,1,.85,4.44,9.93,9.93,0,0,1-1,4.78,9.1,9.1,0,0,1-2.51,3.08,10.47,10.47,0,0,1-3.3,1.71,22.41,22.41,0,0,1-3.48.8L325.3,46.4H321L309.69,27.26h-7V46.4h-3.76Z" transform="translate(0 -0.15)" fill="#fff"/><polygon points="344.48 5.92 350.12 5.92 364.81 39.76 379.51 5.92 384.86 5.92 384.86 46.25 381.11 46.25 381.11 10.71 380.99 10.71 365.61 46.25 363.96 46.25 348.35 10.71 348.24 10.71 348.24 46.25 344.48 46.25 344.48 5.92" fill="#fff"/><rect x="408.24" y="5.92" width="3.76" height="40.33" fill="#fff"/><path d="M468.44,40.08a17.14,17.14,0,0,1-6.72,5.64,20,20,0,0,1-8.26,1.71A22.9,22.9,0,0,1,445,45.89a19.65,19.65,0,0,1-6.55-4.39,20.51,20.51,0,0,1-4.27-6.72,23.15,23.15,0,0,1-1.54-8.54,22.7,22.7,0,0,1,1.54-8.49,19.84,19.84,0,0,1,4.27-6.66A19.36,19.36,0,0,1,445,6.64a22.13,22.13,0,0,1,8.49-1.59,19.47,19.47,0,0,1,7.63,1.48,15,15,0,0,1,6.27,4.84l-3.08,2.56a11.13,11.13,0,0,0-4.84-4.15,14.31,14.31,0,0,0-6-1.31,17.9,17.9,0,0,0-7.12,1.36A16.06,16.06,0,0,0,441,13.59a16.61,16.61,0,0,0-3.41,5.64,20.08,20.08,0,0,0-1.2,7,20,20,0,0,0,1.2,7A16.42,16.42,0,0,0,441,38.88a15.78,15.78,0,0,0,5.36,3.76A17.9,17.9,0,0,0,453.46,44a16.34,16.34,0,0,0,3.19-.34,16.62,16.62,0,0,0,3.19-1.14,17,17,0,0,0,3-1.94,13,13,0,0,0,2.5-2.85Z" transform="translate(0 -0.15)" fill="#fff"/><path d="M499.88,6.07h3.88l17,40.33h-4.21l-4.39-10.71H490.77L486.21,46.4h-3.93Zm1.77,4.11-9.4,22.1h18.51Z" transform="translate(0 -0.15)" fill="#fff"/><path d="M147.28,75.53a8.81,8.81,0,0,0,2.11-.23,5.31,5.31,0,0,0,1.69-.7,3.52,3.52,0,0,0,1.12-1.08,2.51,2.51,0,0,0,.4-1.39,3.08,3.08,0,0,0-.55-1.79A3.84,3.84,0,0,0,150.49,69a5.67,5.67,0,0,0-2.49-.49,5.79,5.79,0,0,0-2.49.49,3.9,3.9,0,0,0-1.61,1.31,3.44,3.44,0,0,0-.55,1.94h2.11a1.49,1.49,0,0,1,.32-1,2,2,0,0,1,.89-.64,3.32,3.32,0,0,1,1.33-.25,3.2,3.2,0,0,1,1.29.23,1.52,1.52,0,0,1,.78.66,1.75,1.75,0,0,1-.09,2,2.43,2.43,0,0,1-1,.74,4.53,4.53,0,0,1-1.67.27Zm.7,6.75a6.83,6.83,0,0,0,2.72-.48,3.63,3.63,0,0,0,1.69-1.33,3.42,3.42,0,0,0,.59-2,3.06,3.06,0,0,0-.76-2.17,4.39,4.39,0,0,0-2-1.2,10,10,0,0,0-2.91-.4V76a5.7,5.7,0,0,1,1.82.26,2.67,2.67,0,0,1,1.2.76,1.83,1.83,0,0,1,.42,1.22,1.87,1.87,0,0,1-.7,1.54,3.31,3.31,0,0,1-2.08.55,4.23,4.23,0,0,1-1.55-.25,2.35,2.35,0,0,1-1-.72,2.22,2.22,0,0,1-.4-1.12h-2.24a3.82,3.82,0,0,0,.32,1.56,3.72,3.72,0,0,0,1,1.29,4.87,4.87,0,0,0,1.63.87,7.44,7.44,0,0,0,2.28.31" transform="translate(0 -0.15)" fill="#fff"/><path d="M173.81,72.61l3.34,8.87h2.51l-5.83-13.4L168,81.48h2.51Zm5,9.44v2.09h2.12V80H166.74v4.1h2.13V82.05Z" transform="translate(0 -0.15)" fill="#fff"/><path d="M196.81,75.4a5.07,5.07,0,0,1,.57-2.43A4.32,4.32,0,0,1,199,71.28a4.81,4.81,0,0,1,4.69,0,4.21,4.21,0,0,1,1.6,1.69,5.42,5.42,0,0,1,0,4.88,4.15,4.15,0,0,1-1.6,1.67,4.77,4.77,0,0,1-4.67,0,4.34,4.34,0,0,1-1.62-1.67,5.18,5.18,0,0,1-.57-2.45m-2.37,0a7.31,7.31,0,0,0,.51,2.75,6.47,6.47,0,0,0,3.63,3.67,7.35,7.35,0,0,0,2.75.51,7.25,7.25,0,0,0,2.76-.51,6.66,6.66,0,0,0,2.2-1.46,6.53,6.53,0,0,0,1.45-2.21,7.7,7.7,0,0,0,0-5.51,6.19,6.19,0,0,0-1.47-2.16A6.66,6.66,0,0,0,204.09,69a7.64,7.64,0,0,0-5.49,0,7,7,0,0,0-2.21,1.45A6.39,6.39,0,0,0,195,72.64a7.29,7.29,0,0,0-.51,2.76" transform="translate(0 -0.15)" fill="#fff"/><path d="M223,82.05h2.24V68.75H223Zm1.33-11.32H227a2.92,2.92,0,0,1,1.86.55,1.86,1.86,0,0,1,.71,1.59,1.94,1.94,0,0,1-.71,1.62A2.92,2.92,0,0,1,227,75H224.3v2H227a5.92,5.92,0,0,0,2.51-.49,3.87,3.87,0,0,0,1.67-1.44,4.07,4.07,0,0,0,.59-2.21,4,4,0,0,0-.59-2.18,3.78,3.78,0,0,0-1.67-1.43,5.77,5.77,0,0,0-2.51-.51H224.3Z" transform="translate(0 -0.15)" fill="#fff"/><path d="M248.11,75.4a5.07,5.07,0,0,1,.57-2.43,4.25,4.25,0,0,1,1.62-1.69,4.81,4.81,0,0,1,4.69,0A4.18,4.18,0,0,1,256.58,73a5.46,5.46,0,0,1,0,4.88,4.22,4.22,0,0,1-1.6,1.67,4.77,4.77,0,0,1-4.67,0,4.27,4.27,0,0,1-1.62-1.67,5.18,5.18,0,0,1-.57-2.45m-2.37,0a7.31,7.31,0,0,0,.51,2.75,6.39,6.39,0,0,0,3.63,3.67,7.7,7.7,0,0,0,5.51,0A6.58,6.58,0,0,0,259,78.15a7.7,7.7,0,0,0,0-5.51,6.33,6.33,0,0,0-1.47-2.16A6.76,6.76,0,0,0,255.39,69a7.64,7.64,0,0,0-5.49,0,7,7,0,0,0-2.21,1.45,6.39,6.39,0,0,0-1.44,2.16,7.29,7.29,0,0,0-.51,2.76" transform="translate(0 -0.15)" fill="#fff"/><path d="M276,75.19h2.3a6.19,6.19,0,0,0,2.2-.36,3.23,3.23,0,0,0,1.5-1,2.62,2.62,0,0,0,.55-1.69,3.06,3.06,0,0,0-.55-1.88,3.11,3.11,0,0,0-1.5-1.1,6.19,6.19,0,0,0-2.2-.36h-4v13.3h4.24a7,7,0,0,0,2.47-.4,3.43,3.43,0,0,0,2.31-3.44,3.22,3.22,0,0,0-.38-1.63,3,3,0,0,0-1.06-1.12,4.63,4.63,0,0,0-1.52-.65,7.63,7.63,0,0,0-1.82-.21H276v1.24h2.39a3.87,3.87,0,0,1,1.05.13,1.87,1.87,0,0,1,.81.4,1.62,1.62,0,0,1,.56.68,2,2,0,0,1,.2.93,2.11,2.11,0,0,1-.34,1.24,2.14,2.14,0,0,1-.93.74,3.53,3.53,0,0,1-1.35.25h-1.86V70.59h1.61a2.4,2.4,0,0,1,1.53.46,1.53,1.53,0,0,1,.58,1.29,1.65,1.65,0,0,1-.26,1,1.82,1.82,0,0,1-.74.59,2.75,2.75,0,0,1-1.11.21H276Z" transform="translate(0 -0.15)" fill="#fff"/><path d="M299.52,78.63h7l-.44-1.9h-6.17ZM303,72.51l2.1,4.94.06.55,1.81,4h2.52L303,68l-6.5,14H299l1.85-4.16,0-.5Z" transform="translate(0 -0.15)" fill="#fff"/><path d="M329.17,75.7h-2.42l-4.5,6.35H325Zm2.75-7h-2.24v13.3h2.24Zm-1.33,1.94V68.75h-2.77a5.89,5.89,0,0,0-2.53.51,3.86,3.86,0,0,0-2.24,3.61,4,4,0,0,0,.59,2.19,3.87,3.87,0,0,0,1.65,1.44,5.89,5.89,0,0,0,2.53.51h2.77V75.17h-2.68a3.42,3.42,0,0,1-1.35-.26,2.3,2.3,0,0,1-.89-3.2,2.14,2.14,0,0,1,.89-.76,3.42,3.42,0,0,1,1.35-.26Z" transform="translate(0 -0.15)" fill="#fff"/><path d="M365.66,82.05H368V68.75h-2.3Zm7.24-13.3L367.27,75l5.85,7h2.76L370,75l5.6-6.23Z" transform="translate(0 -0.15)" fill="#fff"/><path d="M390.63,75.4A5.07,5.07,0,0,1,391.2,73a4.3,4.3,0,0,1,1.61-1.69,4.49,4.49,0,0,1,2.34-.61,4.44,4.44,0,0,1,2.36.61A4.18,4.18,0,0,1,399.1,73a5.07,5.07,0,0,1,.57,2.43,5,5,0,0,1-.59,2.45,4.19,4.19,0,0,1-1.59,1.67,4.39,4.39,0,0,1-2.34.61,4.49,4.49,0,0,1-2.34-.61,4.31,4.31,0,0,1-1.61-1.67,5.18,5.18,0,0,1-.57-2.45m-2.38,0a7.32,7.32,0,0,0,.52,2.75,6.61,6.61,0,0,0,1.42,2.21,6.71,6.71,0,0,0,2.21,1.46,7.7,7.7,0,0,0,5.51,0,6.66,6.66,0,0,0,2.2-1.46,6.51,6.51,0,0,0,1.44-2.21,7.56,7.56,0,0,0,0-5.51,6.16,6.16,0,0,0-1.46-2.16A6.76,6.76,0,0,0,397.91,69a7.67,7.67,0,0,0-5.5,0,7.07,7.07,0,0,0-2.2,1.45,6.39,6.39,0,0,0-1.44,2.16,7.29,7.29,0,0,0-.52,2.76" transform="translate(0 -0.15)" fill="#fff"/><path d="M417.77,68.75h-2.7L420.74,75l-5.95,7.07h2.7l5.9-7Zm5.11,13.3h2.3V68.75h-2.3Zm7.22-13.3L424.67,75l5.72,7h2.75L427.2,75l5.66-6.23Z" transform="translate(0 -0.15)" fill="#fff"/><path d="M448.79,78.63h7l-.43-1.9h-6.18Zm3.48-6.12,2.11,4.94.06.55,1.8,4h2.53l-6.5-14-6.5,14h2.53l1.84-4.16,0-.5Z" transform="translate(0 -0.15)" fill="#fff"/></g><g clip-path="url(#b)"><line x1="19.73" y1="55.4" x2="34.73" y2="55.4" fill="none" stroke="#fff"/><line x1="0.5" y1="35.59" x2="0.5" y2="20.59" fill="none" stroke="#fff"/><line x1="15.73" y1="52.4" x2="38.73" y2="52.4" fill="none" stroke="#fff"/><line x1="3.5" y1="39.7" x2="3.5" y2="16.7" fill="none" stroke="#fff"/><line x1="11.73" y1="49.4" x2="42.73" y2="49.4" fill="none" stroke="#fff"/><line x1="6.5" y1="43.8" x2="6.5" y2="12.8" fill="none" stroke="#fff"/><line x1="10.73" y1="46.4" x2="45.73" y2="46.4" fill="none" stroke="#fff"/><line x1="9.53" y1="46.91" x2="9.53" y2="8.91" fill="none" stroke="#fff"/><line x1="13.73" y1="43.4" x2="47.73" y2="43.4" fill="none" stroke="#fff"/><line x1="12.62" y1="44.02" x2="12.62" y2="7.02" fill="none" stroke="#fff"/><line x1="16.73" y1="40.4" x2="48.73" y2="40.4" fill="none" stroke="#fff"/><line x1="15.69" y1="41.13" x2="15.69" y2="5.13" fill="none" stroke="#fff"/><line x1="19.73" y1="37.4" x2="50.73" y2="37.4" fill="none" stroke="#fff"/><line x1="18.78" y1="38.24" x2="18.78" y2="4.24" fill="none" stroke="#fff"/><line x1="22.73" y1="34.4" x2="51.73" y2="34.4" fill="none" stroke="#fff"/><line x1="21.84" y1="35.35" x2="21.84" y2="3.35" fill="none" stroke="#fff"/><line x1="25.73" y1="31.4" x2="52.73" y2="31.4" fill="none" stroke="#fff"/><line x1="24.91" y1="31.46" x2="24.91" y2="1.46" fill="none" stroke="#fff"/><line x1="28.73" y1="28.4" x2="53.73" y2="28.4" fill="none" stroke="#fff"/><line x1="27.98" y1="28.57" x2="27.98" y2="1.57" fill="none" stroke="#fff"/><line x1="31.73" y1="25.4" x2="54.73" y2="25.4" fill="none" stroke="#fff"/><line x1="31.05" y1="25.67" x2="31.05" y2="0.67" fill="none" stroke="#fff"/><line x1="34.73" y1="22.4" x2="55.73" y2="22.4" fill="none" stroke="#fff"/><line x1="34.12" y1="22.78" x2="34.12" y2="0.78" fill="none" stroke="#fff"/><line x1="37.73" y1="19.4" x2="56.73" y2="19.4" fill="none" stroke="#fff"/><line x1="37.19" y1="19.89" x2="37.19" y2="0.89" fill="none" stroke="#fff"/><line x1="40.73" y1="16.4" x2="56.73" y2="16.4" fill="none" stroke="#fff"/><line x1="40.25" y1="17" x2="40.25" fill="none" stroke="#fff"/><line x1="43.73" y1="13.4" x2="56.73" y2="13.4" fill="none" stroke="#fff"/><line x1="43.31" y1="14.11" x2="43.31" y2="0.11" fill="none" stroke="#fff"/><line x1="46.73" y1="10.4" x2="56.73" y2="10.4" fill="none" stroke="#fff"/><line x1="46.35" y1="10.22" x2="46.35" y2="0.22" fill="none" stroke="#fff"/><line x1="49.73" y1="7.4" x2="56.73" y2="7.4" fill="none" stroke="#fff"/><line x1="49.4" y1="7.33" x2="49.4" y2="0.33" fill="none" stroke="#fff"/><line x1="52.73" y1="4.4" x2="56.73" y2="4.4" fill="none" stroke="#fff"/><line x1="52.45" y1="4.43" x2="52.45" y2="0.43" fill="none" stroke="#fff"/></g><g clip-path="url(#a)"><line x1="2.38" y1="54.54" x2="55.38" y2="1.54" fill="none" stroke="#fff"/></g></svg>